<?xml version="1.0" encoding="utf-8"?>
<svg xmlns="http://www.w3.org/2000/svg" xmlns:xlink="http://www.w3.org/1999/xlink" style="margin: auto; background: rgb(255, 255, 255); display: block; shape-rendering: auto;" width="200px" height="200px" viewBox="0 0 100 100" preserveAspectRatio="xMidYMid">
<g transform="rotate(0 50 50)">
  <rect x="47" y="24" rx="1.92" ry="1.92" width="6" height="12" fill="#0598c7">
    <animate attributeName="opacity" values="1;0" keyTimes="0;1" dur="0.9174311926605504s" begin="-0.8468595624558927s" repeatCount="indefinite"></animate>
  </rect>
</g><g transform="rotate(27.692307692307693 50 50)">
  <rect x="47" y="24" rx="1.92" ry="1.92" width="6" height="12" fill="#0598c7">
    <animate attributeName="opacity" values="1;0" keyTimes="0;1" dur="0.9174311926605504s" begin="-0.7762879322512349s" repeatCount="indefinite"></animate>
  </rect>
</g><g transform="rotate(55.38461538461539 50 50)">
  <rect x="47" y="24" rx="1.92" ry="1.92" width="6" height="12" fill="#0598c7">
    <animate attributeName="opacity" values="1;0" keyTimes="0;1" dur="0.9174311926605504s" begin="-0.7057163020465772s" repeatCount="indefinite"></animate>
  </rect>
</g><g transform="rotate(83.07692307692308 50 50)">
  <rect x="47" y="24" rx="1.92" ry="1.92" width="6" height="12" fill="#0598c7">
    <animate attributeName="opacity" values="1;0" keyTimes="0;1" dur="0.9174311926605504s" begin="-0.6351446718419195s" repeatCount="indefinite"></animate>
  </rect>
</g><g transform="rotate(110.76923076923077 50 50)">
  <rect x="47" y="24" rx="1.92" ry="1.92" width="6" height="12" fill="#0598c7">
    <animate attributeName="opacity" values="1;0" keyTimes="0;1" dur="0.9174311926605504s" begin="-0.5645730416372617s" repeatCount="indefinite"></animate>
  </rect>
</g><g transform="rotate(138.46153846153845 50 50)">
  <rect x="47" y="24" rx="1.92" ry="1.92" width="6" height="12" fill="#0598c7">
    <animate attributeName="opacity" values="1;0" keyTimes="0;1" dur="0.9174311926605504s" begin="-0.494001411432604s" repeatCount="indefinite"></animate>
  </rect>
</g><g transform="rotate(166.15384615384616 50 50)">
  <rect x="47" y="24" rx="1.92" ry="1.92" width="6" height="12" fill="#0598c7">
    <animate attributeName="opacity" values="1;0" keyTimes="0;1" dur="0.9174311926605504s" begin="-0.42342978122794633s" repeatCount="indefinite"></animate>
  </rect>
</g><g transform="rotate(193.84615384615384 50 50)">
  <rect x="47" y="24" rx="1.92" ry="1.92" width="6" height="12" fill="#0598c7">
    <animate attributeName="opacity" values="1;0" keyTimes="0;1" dur="0.9174311926605504s" begin="-0.3528581510232886s" repeatCount="indefinite"></animate>
  </rect>
</g><g transform="rotate(221.53846153846155 50 50)">
  <rect x="47" y="24" rx="1.92" ry="1.92" width="6" height="12" fill="#0598c7">
    <animate attributeName="opacity" values="1;0" keyTimes="0;1" dur="0.9174311926605504s" begin="-0.28228652081863087s" repeatCount="indefinite"></animate>
  </rect>
</g><g transform="rotate(249.23076923076923 50 50)">
  <rect x="47" y="24" rx="1.92" ry="1.92" width="6" height="12" fill="#0598c7">
    <animate attributeName="opacity" values="1;0" keyTimes="0;1" dur="0.9174311926605504s" begin="-0.21171489061397317s" repeatCount="indefinite"></animate>
  </rect>
</g><g transform="rotate(276.9230769230769 50 50)">
  <rect x="47" y="24" rx="1.92" ry="1.92" width="6" height="12" fill="#0598c7">
    <animate attributeName="opacity" values="1;0" keyTimes="0;1" dur="0.9174311926605504s" begin="-0.14114326040931544s" repeatCount="indefinite"></animate>
  </rect>
</g><g transform="rotate(304.61538461538464 50 50)">
  <rect x="47" y="24" rx="1.92" ry="1.92" width="6" height="12" fill="#0598c7">
    <animate attributeName="opacity" values="1;0" keyTimes="0;1" dur="0.9174311926605504s" begin="-0.07057163020465772s" repeatCount="indefinite"></animate>
  </rect>
</g><g transform="rotate(332.3076923076923 50 50)">
  <rect x="47" y="24" rx="1.92" ry="1.92" width="6" height="12" fill="#0598c7">
    <animate attributeName="opacity" values="1;0" keyTimes="0;1" dur="0.9174311926605504s" begin="0s" repeatCount="indefinite"></animate>
  </rect>
</g>
<!-- [ldio] generated by https://loading.io/ --></svg>